<svg width="244" height="160" viewBox="0 0 244 160" fill="none" xmlns="http://www.w3.org/2000/svg"><g clip-path="url(#clip0_1965_7607)"><path d="M244 85.2698C243.521 89.6994 243.004 94.1135 242.58 98.5432C241.808 106.473 241.369 114.442 240.35 122.341C239.046 132.454 231.385 139.06 221.263 139.06C219.072 139.06 218.177 139.687 217.513 141.809C215.769 147.064 212.434 151.641 207.974 154.902C203.513 158.163 198.15 159.945 192.632 160C181.761 160.116 172.094 153.596 168.661 143.343C167.666 140.369 166.586 138.975 163.26 138.619C160.429 138.324 157.767 136.45 154.704 135.142C150.777 138.464 145.647 139.199 140.169 139.161C124.206 139.045 108.243 139.161 92.2807 139.06C89.9661 139.06 88.886 139.556 88.0991 141.949C84.7893 152.016 75.2842 159.357 65.2853 159.915C54.1292 160.527 45.7736 155.965 40.4116 146.076C39.6956 144.925 39.1961 143.652 38.938 142.32C38.5754 139.393 37.0324 139.045 34.4092 139.052C23.7623 139.091 17.0346 131.928 17.6518 121.241C17.9913 115.278 18.732 109.346 19.2875 103.391C19.3646 102.547 19.434 101.695 19.5266 100.603C17.7599 100.603 16.186 100.642 14.6121 100.603C11.2791 100.495 8.99542 98.2799 8.94913 95.0893C8.91814 94.3268 9.03734 93.5657 9.29992 92.8495C9.5625 92.1334 9.96328 91.4763 10.4793 90.9159C10.9953 90.3555 11.6165 89.9028 12.3071 89.5837C12.9978 89.2647 13.7443 89.0856 14.5041 89.0567C15.3759 89.0025 16.2554 89.0567 17.1272 89.0567C40.9517 89.0567 64.7787 89.0567 88.6083 89.0567C90.0332 89.093 91.4568 88.9446 92.8439 88.6153C94.9265 88.0155 96.7163 86.6672 97.8717 84.8275C99.0272 82.9879 99.4675 80.7856 99.1086 78.6409C98.5068 74.614 95.0659 71.7719 90.6219 71.7642C71.5552 71.7642 52.4936 71.7642 33.4371 71.7642C32.484 71.7916 31.5302 71.7527 30.5825 71.648C29.262 71.5326 28.0299 70.9338 27.1209 69.9656C26.2118 68.9974 25.6891 67.7275 25.6525 66.3976C25.5562 65.0255 25.9555 63.6645 26.7773 62.5638C27.599 61.463 28.7883 60.6962 30.1273 60.4037C31.2975 60.1887 32.4871 60.0979 33.6763 60.1326C52.815 60.1326 71.9564 60.1326 91.1003 60.1326C92.5255 60.1935 93.9528 60.0817 95.3513 59.7996C97.3677 59.238 99.1228 57.982 100.309 56.2518C101.496 54.5215 102.037 52.4274 101.84 50.3364C101.23 45.7906 97.8433 42.8246 93.1679 42.8246C72.121 42.8246 51.074 42.8246 30.027 42.8246C21.9261 42.8246 13.8251 42.8246 5.72419 42.8246C2.54554 42.8246 0.323571 40.7492 0.0458244 37.8297C-0.0807294 36.3847 0.332437 34.944 1.20504 33.7876C2.07765 32.6312 3.34738 31.8417 4.76751 31.5725C5.38877 31.4571 6.01833 31.3924 6.65001 31.3789C7.36752 31.3789 8.08503 31.3789 8.79483 31.3789H95.2896C99.8261 31.3789 102.866 29.3113 104.069 25.4934C104.411 24.4697 104.536 23.3856 104.435 22.3107C104.335 21.2357 104.012 20.1937 103.487 19.2516C102.961 18.3094 102.246 17.4879 101.385 16.8398C100.525 16.1917 99.5394 15.7313 98.4914 15.4881C97.2505 15.2336 95.9848 15.1219 94.7187 15.1551C73.43 15.1551 52.1438 15.1551 30.8602 15.1551H27.8204C28.2834 11.469 28.592 8.06931 29.1783 4.70839C29.4004 3.46423 30.032 2.33087 30.9721 1.48983C31.9121 0.648785 33.1061 0.148711 34.3629 0.0696965C34.9956 0 35.6359 0 36.2608 0C75.7317 0 115.205 0.0258135 154.681 0.0774406C157.68 0.0622634 160.643 0.723913 163.353 2.01346C169.371 5.11108 172.063 10.439 171.662 17.1763C171.415 21.149 170.798 25.0908 170.304 29.3732C171.276 29.4197 172.187 29.4971 173.097 29.4971C184.531 29.4971 195.973 29.5746 207.406 29.4971C211.009 29.4584 213.285 30.7981 214.944 34.0816C221.826 47.7189 228.901 61.2555 235.86 74.8541C236.493 76.0931 237.141 76.8056 238.676 76.8443C241.376 76.8985 242.881 78.7493 243.992 80.9874L244 85.2698ZM169.209 41.2836C168.723 46.4798 168.244 51.467 167.789 56.4542C166.071 75.4942 164.358 94.5395 162.651 113.59C162.373 116.765 162.072 119.94 162.018 123.123C162.018 125.338 163.715 126.871 165.799 127.421C168.368 128.102 168.391 126.073 169.008 124.672C173.035 115.526 179.879 109.818 189.723 108.27C199.568 106.721 207.646 109.966 213.71 117.795C215.847 120.567 217.158 123.99 218.972 127.343C225.815 128.257 228.731 125.849 229.248 118.585C229.58 113.938 230.089 109.222 230.498 104.537C230.969 99.2401 231.416 93.9432 231.894 88.352H228.808C218.563 88.352 208.309 88.5378 198.079 88.1893C195.985 88.1051 193.931 87.5955 192.039 86.6914C190.148 85.7873 188.459 84.5075 187.074 82.9294C185.689 81.3513 184.638 79.5077 183.983 77.5101C183.329 75.5124 183.085 73.4023 183.266 71.3073C183.651 65.7471 184.238 60.1946 184.724 54.6421C185.11 50.2357 185.495 45.8216 185.873 41.2836H169.209ZM63.2639 148.43C67.1965 148.41 70.9619 146.831 73.7405 144.038C76.5191 141.245 78.086 137.463 78.1002 133.515C78.0963 131.659 77.7254 129.822 77.0089 128.111C76.2924 126.4 75.2446 124.848 73.9262 123.547C72.6079 122.245 71.0452 121.219 69.3288 120.528C67.6125 119.837 65.7765 119.495 63.9274 119.522C60.0355 119.57 56.3163 121.143 53.5633 123.905C50.8103 126.666 49.2415 130.399 49.1915 134.305C49.1864 136.162 49.5469 138.001 50.2523 139.717C50.9577 141.433 51.9941 142.992 53.3018 144.305C54.6096 145.617 56.163 146.658 57.8726 147.366C59.5823 148.074 61.4145 148.435 63.2639 148.43ZM207.399 133.539C207.41 131.683 207.053 129.844 206.347 128.129C205.641 126.414 204.601 124.858 203.288 123.552C201.975 122.246 200.416 121.216 198.701 120.522C196.987 119.829 195.151 119.486 193.303 119.514C191.358 119.529 189.434 119.93 187.644 120.693C185.853 121.456 184.23 122.567 182.868 123.962C181.506 125.356 180.431 127.007 179.707 128.819C178.982 130.631 178.621 132.569 178.644 134.522C178.644 136.36 179.006 138.179 179.71 139.876C180.413 141.573 181.443 143.113 182.742 144.409C184.04 145.704 185.581 146.729 187.276 147.425C188.971 148.12 190.786 148.473 192.617 148.461C194.565 148.46 196.494 148.073 198.293 147.322C200.092 146.571 201.726 145.47 203.1 144.084C204.474 142.697 205.562 141.052 206.301 139.242C207.04 137.433 207.416 135.494 207.406 133.539H207.399Z" fill="#0A8B6A"></path></g><defs><clipPath id="clip0_1965_7607"><rect width="244" height="160" fill="white"></rect></clipPath></defs></svg>