<svg width="43" height="45" viewBox="0 0 43 45" fill="none" xmlns="http://www.w3.org/2000/svg">
<rect x="0.308594" y="3.28125" width="41.7196" height="41.7196" rx="8.69159" fill="black"/>
<path d="M19.7032 19.7096C19.7032 19.6013 19.6153 19.5134 19.4394 19.4458C19.277 19.3781 19.0809 19.3308 18.8509 19.3037C18.6209 19.2766 18.4044 19.2631 18.2015 19.2631C17.9985 19.2496 17.8565 19.2428 17.7753 19.2428C17.3965 19.2428 16.9974 19.2631 16.578 19.3037C16.1586 19.3443 15.7662 19.4322 15.4009 19.5675C15.0356 19.7028 14.738 19.9193 14.508 20.2169C14.2915 20.501 14.1833 20.8934 14.1833 21.394C14.1833 21.6104 14.2239 21.8201 14.3051 22.0231C14.3862 22.226 14.4877 22.4086 14.6095 22.571C14.88 22.9092 15.2386 23.1528 15.685 23.3016C16.1315 23.4369 16.5983 23.518 17.0853 23.5451C17.5724 23.5722 18.0121 23.5857 18.4044 23.5857C18.6209 23.5857 18.8373 23.5857 19.0538 23.5857C19.2703 23.5722 19.4867 23.5383 19.7032 23.4842V19.7096ZM23.4576 19.0196C23.4576 19.1819 23.3899 19.2902 23.2546 19.3443C23.1329 19.3984 23.0043 19.4255 22.869 19.4255C22.7473 19.4255 22.6255 19.4187 22.5038 19.4052C22.382 19.3916 22.2602 19.3849 22.1385 19.3849C21.6108 19.3849 21.347 19.6284 21.347 20.1154V27.8677C21.347 28.2465 21.4079 28.5238 21.5297 28.6997C21.6649 28.8621 21.8273 28.9635 22.0167 29.0041C22.2061 29.0447 22.3888 29.065 22.5646 29.065C22.754 29.0515 22.9096 29.0582 23.0314 29.0853C23.1667 29.0988 23.2343 29.18 23.2343 29.3288C23.2343 29.4235 23.2073 29.5182 23.1532 29.6129C23.1126 29.6941 23.0382 29.7347 22.9299 29.7347C22.5105 29.7347 22.0843 29.7212 21.6514 29.6941C21.232 29.6671 20.8126 29.6535 20.3932 29.6535C20.055 29.6535 19.7167 29.6603 19.3785 29.6738C19.0403 29.6874 18.702 29.6941 18.3638 29.6941C18.2421 29.6941 18.1203 29.6806 17.9985 29.6535C17.8903 29.6265 17.8362 29.5318 17.8362 29.3694C17.8362 29.2747 17.87 29.2071 17.9376 29.1665C18.0053 29.1259 18.0797 29.1056 18.1609 29.1056C18.2691 29.1056 18.3706 29.1124 18.4653 29.1259C18.56 29.1394 18.6547 29.1462 18.7494 29.1462C19.1012 29.1462 19.3447 29.0312 19.48 28.8012C19.6153 28.5577 19.6897 28.2803 19.7032 27.9691V24.093L17.755 24.1539C17.1597 24.9657 16.5712 25.7977 15.9894 26.6501C15.4212 27.4889 14.7989 28.2871 14.1224 29.0447C13.8789 29.3288 13.6489 29.5047 13.4324 29.5724C13.216 29.6265 12.9318 29.6603 12.5801 29.6738C12.2689 29.6874 11.951 29.6941 11.6263 29.6941C11.3151 29.7077 11.0039 29.7144 10.6928 29.7144C10.5981 29.7144 10.4898 29.7009 10.3681 29.6738C10.2598 29.6468 10.2057 29.5791 10.2057 29.4709C10.2057 29.3762 10.226 29.3085 10.2666 29.268C11.0648 29.2815 11.7683 29.0447 12.3771 28.5577C13.1213 27.9353 13.7842 27.2047 14.3659 26.3659C14.9612 25.5271 15.5497 24.7221 16.1315 23.951C15.7256 23.8833 15.2995 23.7886 14.853 23.6669C14.4065 23.5451 13.9939 23.376 13.6151 23.1595C13.2363 22.9431 12.9251 22.6589 12.6816 22.3072C12.4516 21.9554 12.3366 21.5293 12.3366 21.0287C12.3366 20.474 12.4989 20.0343 12.8236 19.7096C13.1618 19.3849 13.5812 19.1481 14.0818 18.9993C14.5959 18.8369 15.1168 18.7355 15.6444 18.6949C16.1856 18.6408 16.6591 18.6137 17.065 18.6137C17.1732 18.6137 17.2747 18.6137 17.3694 18.6137C17.4777 18.6137 17.5859 18.6205 17.6941 18.634C18.2894 18.6611 18.8779 18.6814 19.4597 18.6949C20.055 18.7084 20.6435 18.7152 21.2252 18.7152C21.5364 18.7152 21.8476 18.7084 22.1588 18.6949C22.4835 18.6814 22.8082 18.6746 23.1329 18.6746C23.3493 18.6746 23.4576 18.7896 23.4576 19.0196Z" fill="#D6D6D6"/>
<path d="M21.328 19.7096C21.328 19.6013 21.416 19.5134 21.5919 19.4458C21.7542 19.3781 21.9504 19.3308 22.1804 19.3037C22.4104 19.2766 22.6268 19.2631 22.8298 19.2631C23.0327 19.2496 23.1748 19.2428 23.2559 19.2428C23.6348 19.2428 24.0339 19.2631 24.4533 19.3037C24.8727 19.3443 25.265 19.4322 25.6303 19.5675C25.9956 19.7028 26.2932 19.9193 26.5232 20.2169C26.7397 20.501 26.8479 20.8934 26.8479 21.394C26.8479 21.6104 26.8074 21.8201 26.7262 22.0231C26.645 22.226 26.5435 22.4086 26.4218 22.571C26.1512 22.9092 25.7927 23.1528 25.3462 23.3016C24.8997 23.4369 24.433 23.518 23.9459 23.5451C23.4589 23.5722 23.0192 23.5857 22.6268 23.5857C22.4104 23.5857 22.1939 23.5857 21.9774 23.5857C21.761 23.5722 21.5445 23.5383 21.328 23.4842V19.7096ZM17.5737 19.0196C17.5737 19.1819 17.6413 19.2902 17.7766 19.3443C17.8984 19.3984 18.0269 19.4255 18.1622 19.4255C18.284 19.4255 18.4057 19.4187 18.5275 19.4052C18.6493 19.3916 18.771 19.3849 18.8928 19.3849C19.4204 19.3849 19.6842 19.6284 19.6842 20.1154V27.8677C19.6842 28.2465 19.6234 28.5238 19.5016 28.6997C19.3663 28.8621 19.2039 28.9635 19.0145 29.0041C18.8251 29.0447 18.6425 29.065 18.4666 29.065C18.2772 29.0515 18.1216 29.0582 17.9998 29.0853C17.8646 29.0988 17.7969 29.18 17.7969 29.3288C17.7969 29.4235 17.824 29.5182 17.8781 29.6129C17.9187 29.6941 17.9931 29.7347 18.1013 29.7347C18.5207 29.7347 18.9469 29.7212 19.3798 29.6941C19.7992 29.6671 20.2186 29.6535 20.638 29.6535C20.9763 29.6535 21.3145 29.6603 21.6527 29.6738C21.991 29.6874 22.3292 29.6941 22.6674 29.6941C22.7892 29.6941 22.9109 29.6806 23.0327 29.6535C23.1409 29.6265 23.1951 29.5318 23.1951 29.3694C23.1951 29.2747 23.1612 29.2071 23.0936 29.1665C23.0259 29.1259 22.9515 29.1056 22.8704 29.1056C22.7621 29.1056 22.6607 29.1124 22.566 29.1259C22.4712 29.1394 22.3765 29.1462 22.2818 29.1462C21.9301 29.1462 21.6866 29.0312 21.5513 28.8012C21.416 28.5577 21.3416 28.2803 21.328 27.9691V24.093L23.2762 24.1539C23.8715 24.9657 24.46 25.7977 25.0418 26.6501C25.61 27.4889 26.2324 28.2871 26.9088 29.0447C27.1524 29.3288 27.3823 29.5047 27.5988 29.5724C27.8153 29.6265 28.0994 29.6603 28.4512 29.6738C28.7623 29.6874 29.0803 29.6941 29.405 29.6941C29.7161 29.7077 30.0273 29.7144 30.3385 29.7144C30.4332 29.7144 30.5414 29.7009 30.6632 29.6738C30.7714 29.6468 30.8255 29.5791 30.8255 29.4709C30.8255 29.3762 30.8052 29.3085 30.7646 29.268C29.9664 29.2815 29.2629 29.0447 28.6541 28.5577C27.91 27.9353 27.2471 27.2047 26.6653 26.3659C26.07 25.5271 25.4815 24.7221 24.8997 23.951C25.3056 23.8833 25.7318 23.7886 26.1782 23.6669C26.6247 23.5451 27.0374 23.376 27.4162 23.1595C27.795 22.9431 28.1062 22.6589 28.3497 22.3072C28.5797 21.9554 28.6947 21.5293 28.6947 21.0287C28.6947 20.474 28.5323 20.0343 28.2076 19.7096C27.8694 19.3849 27.45 19.1481 26.9494 18.9993C26.4353 18.8369 25.9144 18.7355 25.3868 18.6949C24.8456 18.6408 24.3721 18.6137 23.9662 18.6137C23.858 18.6137 23.7565 18.6137 23.6618 18.6137C23.5536 18.6137 23.4454 18.6205 23.3371 18.634C22.7418 18.6611 22.1533 18.6814 21.5716 18.6949C20.9763 18.7084 20.3878 18.7152 19.806 18.7152C19.4948 18.7152 19.1837 18.7084 18.8725 18.6949C18.5478 18.6814 18.2231 18.6746 17.8984 18.6746C17.6819 18.6746 17.5737 18.7896 17.5737 19.0196Z" fill="#D6D6D6"/>
</svg>
